# xmcd CD database file
#
# Track frame offsets:
#	150
#	18326
#	34479
#	49416
#	68601
#	85682
#	99708
#	122194
#	139106
#	155611
#	172783
#	194031
#	214611
#
# Disc length: 3076 seconds
#
# Revision: 0
# Processed by: cddbd v1.5PL3 Copyright (c) Steve Scherf et al.
# Submitted via: CDex 1.50beta10
#
DISCID=b60c020d
DTITLE=Boy Hits Car - boy hits car
DYEAR=2001
DGENRE=Rock
TTITLE0=The Rebirth
TTITLE1=Lovecore (Welcome To)
TTITLE2=As I Watch The Sun Fuck The Ocean
TTITLE3=I'm A Cloud
TTITLE4=Man Without Skin
TTITLE5=A Letter From Prison
TTITLE6=Unheard
TTITLE7=Going To India
TTITLE8=Turring Inward
TTITLE9=Benkei
TTITLE10=Before We Die
TTITLE11=I'm A Cloud (Live in Dallas)
TTITLE12=Lovecore (Welcome To)(Live in Dallas)
EXTD=YEAR: 2001
EXTT0=
EXTT1=
EXTT2=
EXTT3=
EXTT4=
EXTT5=
EXTT6=
EXTT7=
EXTT8=
EXTT9=
EXTT10=
EXTT11=
EXTT12=
PLAYORDER=
